<svg xmlns="http://www.w3.org/2000/svg" xmlns:xlink="http://www.w3.org/1999/xlink" width="500" zoomAndPan="magnify" viewBox="0 0 375 374.999991" height="500" preserveAspectRatio="xMidYMid meet" version="1.0"><defs><clipPath id="bff9670d15"><path d="M 182 144.625 L 185 144.625 L 185 151 L 182 151 Z M 182 144.625 " clip-rule="nonzero"/></clipPath><clipPath id="db152163a5"><path d="M 169.171875 158 L 175 158 L 175 160 L 169.171875 160 Z M 169.171875 158 " clip-rule="nonzero"/></clipPath><clipPath id="b1b7c6855c"><path d="M 190 144.625 L 193 144.625 L 193 151 L 190 151 Z M 190 144.625 " clip-rule="nonzero"/></clipPath><clipPath id="01b6387e6e"><path d="M 200 158 L 205.921875 158 L 205.921875 160 L 200 160 Z M 200 158 " clip-rule="nonzero"/></clipPath><clipPath id="017853930f"><path d="M 175 151 L 200 151 L 200 162.625 L 175 162.625 Z M 175 151 " clip-rule="nonzero"/></clipPath><clipPath id="3792ad3f1e"><path d="M 85.671875 179.152344 L 95.195312 179.152344 L 95.195312 188.675781 L 85.671875 188.675781 Z M 85.671875 179.152344 " clip-rule="nonzero"/></clipPath><clipPath id="e6c47ce7d9"><path d="M 90.433594 179.152344 C 87.804688 179.152344 85.671875 181.28125 85.671875 183.914062 C 85.671875 186.542969 87.804688 188.675781 90.433594 188.675781 C 93.0625 188.675781 95.195312 186.542969 95.195312 183.914062 C 95.195312 181.28125 93.0625 179.152344 90.433594 179.152344 Z M 90.433594 179.152344 " clip-rule="nonzero"/></clipPath><clipPath id="12ab15b74c"><path d="M 280.160156 179.152344 L 289.683594 179.152344 L 289.683594 188.675781 L 280.160156 188.675781 Z M 280.160156 179.152344 " clip-rule="nonzero"/></clipPath><clipPath id="cd6046e165"><path d="M 284.921875 179.152344 C 282.292969 179.152344 280.160156 181.28125 280.160156 183.914062 C 280.160156 186.542969 282.292969 188.675781 284.921875 188.675781 C 287.550781 188.675781 289.683594 186.542969 289.683594 183.914062 C 289.683594 181.28125 287.550781 179.152344 284.921875 179.152344 Z M 284.921875 179.152344 " clip-rule="nonzero"/></clipPath><clipPath id="d2bff2548e"><path d="M 0 4 L 373 4 L 373 372.84375 L 0 372.84375 Z M 0 4 " clip-rule="nonzero"/></clipPath></defs><g clip-path="url(#bff9670d15)"><path fill="#ffaa01" d="M 183.640625 150.0625 L 184.394531 149.863281 L 182.589844 144.625 Z M 183.640625 150.0625 " fill-opacity="1" fill-rule="evenodd"/></g><path fill="#ffaa01" d="M 177.714844 153.71875 L 178.265625 153.167969 L 174.082031 149.535156 Z M 177.714844 153.71875 " fill-opacity="1" fill-rule="evenodd"/><g clip-path="url(#db152163a5)"><path fill="#ffaa01" d="M 174.40625 159.851562 L 174.609375 159.09375 L 169.171875 158.042969 Z M 174.40625 159.851562 " fill-opacity="1" fill-rule="evenodd"/></g><g clip-path="url(#b1b7c6855c)"><path fill="#ffaa01" d="M 190.601562 149.863281 L 191.359375 150.0625 L 192.410156 144.625 Z M 190.601562 149.863281 " fill-opacity="1" fill-rule="evenodd"/></g><g clip-path="url(#01b6387e6e)"><path fill="#ffaa01" d="M 200.386719 159.09375 L 200.589844 159.851562 L 205.828125 158.042969 Z M 200.386719 159.09375 " fill-opacity="1" fill-rule="evenodd"/></g><path fill="#ffaa01" d="M 196.734375 153.167969 L 197.285156 153.71875 L 200.917969 149.535156 Z M 196.734375 153.167969 " fill-opacity="1" fill-rule="evenodd"/><g clip-path="url(#017853930f)"><path fill="#ffaa01" d="M 199.003906 162.953125 L 197.761719 162.953125 C 197.757812 157.285156 193.167969 152.691406 187.5 152.691406 C 181.832031 152.691406 177.238281 157.285156 177.238281 162.953125 L 175.992188 162.953125 C 175.992188 156.597656 181.144531 151.449219 187.5 151.449219 C 193.855469 151.449219 199.003906 156.597656 199.003906 162.953125 Z M 199.003906 162.953125 " fill-opacity="1" fill-rule="evenodd"/></g><g clip-path="url(#3792ad3f1e)"><g clip-path="url(#e6c47ce7d9)"><path fill="#ffffff" d="M 85.671875 179.152344 L 95.195312 179.152344 L 95.195312 188.675781 L 85.671875 188.675781 Z M 85.671875 179.152344 " fill-opacity="1" fill-rule="nonzero"/></g></g><g clip-path="url(#12ab15b74c)"><g clip-path="url(#cd6046e165)"><path fill="#ffffff" d="M 280.160156 179.152344 L 289.683594 179.152344 L 289.683594 188.675781 L 280.160156 188.675781 Z M 280.160156 179.152344 " fill-opacity="1" fill-rule="nonzero"/></g></g><g clip-path="url(#d2bff2548e)"><path fill="#1c2a45" d="M 40.25 187.828125 C 36.828125 171.179688 35.648438 154.882812 36.355469 138.820312 C 36.828125 129.726562 37.890625 120.277344 41.078125 111.777344 C 46.976562 96.070312 56.773438 82.84375 70.230469 71.859375 C 70.46875 71.742188 70.585938 71.742188 70.703125 71.859375 C 70.820312 71.976562 70.820312 72.097656 70.820312 72.097656 C 70.820312 72.214844 70.820312 72.332031 70.820312 72.449219 C 53 98.785156 45.445312 127.71875 48.039062 159.25 C 49.574219 178.265625 55.121094 196.449219 64.683594 213.574219 C 73.417969 229.164062 85.929688 242.035156 100.683594 252.308594 C 100.683594 252.308594 100.800781 252.308594 100.800781 252.308594 C 100.921875 252.308594 100.921875 252.308594 100.921875 252.191406 C 100.921875 252.191406 100.921875 252.191406 100.921875 252.074219 C 88.289062 239.320312 78.023438 225.503906 70.820312 209.441406 C 68.226562 203.417969 65.746094 196.570312 63.386719 188.894531 C 60.433594 178.972656 58.664062 167.753906 58.308594 155.472656 C 57.835938 139.882812 59.371094 125.59375 62.914062 112.722656 C 68.933594 90.753906 79.4375 71.742188 94.3125 55.679688 C 99.269531 50.367188 104.578125 45.523438 110.363281 40.800781 C 128.1875 26.746094 148.84375 16.710938 172.332031 10.921875 C 201.015625 3.71875 228.871094 2.890625 255.902344 8.324219 C 270.183594 11.160156 284.585938 16.945312 299.101562 25.800781 C 299.101562 25.800781 299.101562 25.921875 299.101562 26.039062 C 299.101562 26.15625 298.984375 26.273438 298.75 26.15625 C 284.820312 20.371094 270.300781 17.773438 255.195312 18.363281 C 254.011719 18.363281 253.894531 18.597656 255.074219 19.070312 C 278.09375 28.046875 299.8125 40.210938 317.398438 58.042969 C 337.820312 78.710938 352.574219 102.09375 362.015625 128.429688 C 372.402344 157.714844 375 187.949219 369.570312 219.125 C 364.847656 247.113281 354.34375 272.386719 338.171875 294.824219 C 329.320312 307.105469 318.933594 318.445312 307.128906 328.835938 C 274.433594 357.179688 231.585938 371.585938 188.503906 372.058594 C 160.765625 372.296875 134.207031 366.980469 108.945312 355.878906 C 91.714844 348.320312 76.605469 337.929688 63.503906 324.585938 C 60.671875 321.632812 61.023438 321.277344 64.566406 323.285156 C 90.886719 338.875 119.214844 347.847656 149.316406 350.449219 C 177.878906 352.925781 205.144531 349.265625 231.351562 339.464844 C 257.4375 329.898438 279.863281 314.902344 298.628906 294.707031 C 317.632812 274.277344 330.382812 250.773438 336.636719 224.085938 C 339.824219 210.742188 341.003906 195.859375 340.296875 179.679688 C 339.941406 172.359375 338.882812 165.15625 336.992188 158.070312 C 330.738281 133.386719 317.871094 111.421875 298.984375 94.296875 C 281.75 78.710938 262.277344 67.253906 240.675781 60.050781 C 225.449219 54.972656 208.570312 52.964844 192.632812 53.910156 C 175.992188 54.734375 160.648438 59.34375 146.484375 67.492188 C 129.132812 77.410156 116.148438 91.347656 107.53125 109.179688 C 94.902344 135.160156 97.144531 165.863281 111.542969 190.429688 C 112.371094 191.84375 112.132812 191.964844 110.953125 190.902344 C 101.863281 182.398438 95.019531 172.59375 90.296875 161.375 C 81.5625 140.589844 83.6875 117.089844 93.128906 97.015625 C 101.863281 78.472656 114.730469 63.121094 131.726562 50.957031 C 131.847656 50.957031 131.847656 50.839844 131.847656 50.722656 L 131.726562 50.722656 C 131.726562 50.601562 131.609375 50.601562 131.492188 50.722656 C 122.402344 55.679688 114.496094 61.703125 107.886719 68.789062 C 90.414062 87.449219 79.910156 109.53125 76.605469 135.160156 C 73.773438 157.480469 77.3125 178.144531 87.464844 197.160156 C 94.429688 210.386719 104.460938 221.488281 117.210938 229.753906 C 134.207031 240.855469 153.210938 245.933594 174.339844 245.105469 C 174.574219 245.105469 174.691406 245.222656 174.691406 245.460938 C 174.574219 245.695312 174.457031 245.816406 174.339844 245.816406 C 154.746094 250.539062 135.503906 249.121094 116.855469 241.917969 C 115.203125 241.210938 115.085938 241.445312 116.5 242.507812 C 128.1875 251.71875 141.40625 257.035156 156.160156 258.449219 C 177.054688 260.578125 196.175781 256.324219 213.410156 245.816406 C 220.84375 241.210938 227.335938 235.1875 233.121094 227.746094 C 242.5625 215.109375 247.285156 201.058594 247.050781 185.824219 C 246.8125 165.980469 236.898438 147.558594 220.609375 136.695312 C 204.554688 125.949219 182.71875 124.058594 166.078125 134.6875 C 152.382812 143.425781 145.65625 156.652344 145.773438 174.484375 C 145.773438 176.019531 146.011719 176.019531 146.484375 174.601562 C 146.601562 174.011719 146.835938 173.1875 147.191406 172.125 C 151.320312 159.25 161.238281 150.394531 173.628906 147.085938 C 181.183594 145.078125 188.265625 145.199219 195.113281 147.441406 C 206.089844 150.867188 214.707031 159.605469 218.25 170.707031 C 224.503906 190.664062 215.535156 212.75 197 222.550781 C 180.476562 231.40625 159.703125 226.917969 145.773438 214.753906 C 137.628906 207.671875 131.847656 198.578125 128.542969 187.59375 C 126.535156 180.746094 125.828125 173.539062 126.535156 165.980469 C 127.949219 151.691406 132.910156 139.292969 141.644531 128.78125 C 153.566406 114.375 168.910156 105.753906 187.914062 102.917969 C 207.859375 99.964844 226.394531 103.628906 243.507812 114.136719 C 252.480469 119.453125 259.796875 125.828125 265.699219 133.152344 C 280.335938 151.691406 287.417969 172.359375 286.710938 195.386719 C 285.054688 244.871094 249.527344 284.195312 203.730469 299.195312 C 191.453125 303.210938 179.058594 305.570312 166.3125 306.28125 C 159.464844 306.753906 151.558594 306.753906 142.585938 306.398438 C 133.734375 306.042969 124.882812 304.863281 115.792969 302.972656 C 92.777344 298.132812 72.828125 286.792969 55.359375 270.261719 C 40.484375 256.089844 28.917969 239.675781 20.773438 220.898438 C 9.679688 195.386719 5.664062 168.699219 8.734375 140.828125 C 9.441406 133.859375 10.859375 126.65625 12.746094 119.335938 C 21.246094 87.449219 38.714844 58.277344 63.738281 36.429688 C 73.183594 28.164062 83.214844 21.789062 93.71875 17.183594 C 94.074219 17.0625 94.3125 17.0625 94.664062 17.183594 C 94.664062 17.183594 94.78125 17.183594 94.78125 17.300781 C 94.902344 17.300781 94.902344 17.535156 94.902344 17.652344 C 94.78125 17.773438 94.78125 17.773438 94.78125 17.773438 C 82.507812 28.402344 71.53125 40.328125 62.085938 53.320312 C 48.277344 72.332031 39.070312 93.351562 34.347656 116.382812 C 29.390625 140.472656 31.28125 164.328125 40.132812 187.828125 C 40.25 188.183594 40.25 188.183594 40.25 187.828125 Z M 40.605469 189.128906 Z M 276.914062 105.042969 C 266.644531 96.070312 254.957031 88.984375 241.738281 83.90625 C 220.492188 75.640625 199.125 74.8125 177.878906 81.542969 C 164.777344 85.675781 153.445312 93.117188 143.769531 103.746094 C 143.769531 103.863281 143.648438 103.863281 143.53125 103.746094 C 143.414062 103.746094 143.414062 103.628906 143.296875 103.628906 C 143.296875 103.507812 143.296875 103.507812 143.414062 103.507812 C 152.148438 87.804688 164.542969 76.464844 180.714844 69.5 C 204.320312 59.460938 230.523438 58.871094 254.484375 68.316406 C 272.425781 75.402344 287.652344 86.859375 300.046875 102.800781 C 316.21875 123.351562 325.425781 146.496094 327.667969 172.359375 C 330.855469 207.90625 322.472656 240.027344 302.644531 268.726562 C 298.75 274.394531 294.144531 280.0625 288.953125 285.613281 C 271.71875 303.800781 251.417969 317.5 227.925781 326.355469 C 203.613281 335.566406 178.46875 339.464844 152.621094 337.929688 C 127.007812 336.394531 102.925781 329.308594 80.5 316.554688 C 45.914062 296.832031 18.769531 265.890625 6.257812 227.984375 C 2.007812 214.875 0 201.527344 0.355469 188.066406 C 0.472656 186.414062 0.707031 186.414062 1.0625 187.949219 C 5.902344 208.96875 14.871094 228.453125 27.855469 246.40625 C 38.363281 260.929688 50.046875 273.566406 63.03125 284.550781 C 74.480469 294.234375 87.347656 302.382812 101.746094 308.996094 C 124.882812 319.742188 149.316406 323.875 174.8125 321.394531 C 234.066406 315.84375 289.070312 275.691406 299.8125 214.753906 C 304.53125 187.949219 300.519531 162.558594 287.535156 138.585938 C 287.417969 138.585938 287.417969 138.464844 287.417969 138.464844 C 287.417969 138.230469 287.652344 138.113281 287.769531 138.113281 C 287.769531 138.113281 287.890625 138.113281 287.890625 138.113281 C 288.125 138.230469 288.480469 138.464844 288.714844 138.820312 C 298.277344 150.039062 305.359375 161.613281 309.960938 173.660156 C 310.433594 175.074219 310.671875 174.957031 310.433594 173.539062 C 308.664062 161.140625 304.769531 149.332031 298.75 138.230469 C 294.144531 129.84375 287.535156 122.050781 278.683594 114.730469 C 269.59375 107.171875 259.089844 101.03125 247.285156 96.1875 C 244.925781 95.242188 241.972656 94.296875 238.667969 93.589844 C 238.433594 93.589844 238.3125 93.472656 238.3125 93.234375 L 238.433594 92.882812 C 238.433594 92.761719 238.550781 92.644531 238.667969 92.644531 C 252.714844 93.351562 265.460938 97.488281 276.792969 105.164062 C 276.914062 105.164062 276.914062 105.164062 276.914062 105.042969 Z M 154.507812 36.667969 C 155.453125 36.550781 159.230469 35.839844 165.839844 34.660156 C 170.445312 33.832031 174.457031 33.242188 177.644531 33.007812 C 201.839844 31.117188 224.859375 33.597656 247.050781 40.445312 C 266.289062 46.46875 284.820312 54.5 302.644531 64.539062 C 303.46875 65.011719 303.589844 64.890625 302.878906 64.183594 C 286.355469 48.59375 267.234375 37.613281 245.515625 31.234375 C 221.554688 24.265625 197 23.914062 171.859375 30.289062 C 166.429688 31.707031 160.527344 33.714844 154.507812 36.550781 C 154.390625 36.550781 154.507812 36.667969 154.507812 36.667969 Z M 208.332031 185.941406 C 208.332031 173.1875 198.0625 162.792969 185.316406 162.792969 C 172.570312 162.792969 162.179688 173.1875 162.179688 185.941406 C 162.179688 198.695312 172.570312 208.96875 185.316406 208.96875 C 198.0625 208.96875 208.332031 198.695312 208.332031 185.941406 Z M 211.402344 270.144531 C 213.171875 268.726562 213.054688 268.605469 211.046875 269.550781 C 186.96875 282.304688 161.117188 287.976562 134.207031 285.613281 C 123.9375 284.785156 113.90625 282.1875 103.988281 277.9375 C 86.402344 270.378906 71.410156 258.804688 58.898438 243.453125 C 49.691406 232.117188 41.546875 219.480469 34.464844 205.542969 C 30.335938 197.515625 27.265625 189.835938 25.023438 182.515625 C 25.023438 182.28125 24.90625 182.28125 24.789062 182.28125 C 24.667969 182.398438 24.667969 182.515625 24.667969 182.632812 C 30.570312 215.109375 45.445312 242.152344 69.167969 263.765625 C 87.109375 280.0625 111.191406 291.519531 135.386719 293.054688 C 163.953125 295.0625 189.328125 287.382812 211.402344 270.144531 Z M 211.402344 270.144531 " fill-opacity="1" fill-rule="evenodd"/></g></svg>